# xmcd CD database file
#
# Track frame offsets:
#	150
#	18207
#	30756
#	45736
#	65151
#	82706
#	104246
#	124027
#	144483
#
# Disc length: 2198 seconds
#
# Revision: 0
# Processed by: cddbd v1.5.1PL0 Copyright (c) Steve Scherf et al.
# Submitted via: CDex 1.51
#
DISCID=6e089409
DTITLE=Ann-Marita Garsed - Ann-Marita
DYEAR=2004
DGENRE=Country
TTITLE0=Class of '93
TTITLE1=Face In The Crowd
TTITLE2=Alive And Kickin'
TTITLE3=(No Slowing) The Hands Of Time
TTITLE4=The Ex-Boyfriend Song
TTITLE5=That Girl
TTITLE6=More Than Meets The Eye
TTITLE7=You Said Forever
TTITLE8=Sounds Good To Me
EXTD=YEAR: 2004
EXTT0=
EXTT1=
EXTT2=
EXTT3=
EXTT4=
EXTT5=
EXTT6=
EXTT7=
EXTT8=
PLAYORDER=
